<svg id="Layer_1" data-name="Layer 1" xmlns="http://www.w3.org/2000/svg" xmlns:xlink="http://www.w3.org/1999/xlink" viewBox="0 0 385.43 258.38"><defs><style>.cls-1,.cls-3{opacity:0.8;}.cls-1{fill:url(#linear-gradient);}.cls-2{fill:url(#linear-gradient-2);}.cls-3{fill:url(#linear-gradient-3);}.cls-4{fill:url(#linear-gradient-4);}</style><linearGradient id="linear-gradient" x1="313.35" y1="-13.07" x2="313.35" y2="279.57" gradientUnits="userSpaceOnUse"><stop offset="0" stop-color="#420ee2"/><stop offset="1" stop-color="#009fe3"/></linearGradient><linearGradient id="linear-gradient-2" x1="241.84" y1="-43.16" x2="241.84" y2="279.49" xlink:href="#linear-gradient"/><linearGradient id="linear-gradient-3" x1="169.41" y1="-13.07" x2="169.41" y2="279.57" xlink:href="#linear-gradient"/><linearGradient id="linear-gradient-4" x1="101.24" y1="-43.16" x2="101.24" y2="279.49" xlink:href="#linear-gradient"/></defs><path class="cls-1" d="M273.55,73.61a307.86,307.86,0,0,1,35-44.64h4.35a336.38,336.38,0,0,1,40.3,73.35L299.8,124.21A302.67,302.67,0,0,0,273.55,73.61Z"/><path class="cls-2" d="M238.65,29H234.3a333.94,333.94,0,0,0-59.13,141.42c.37,1.48.68,3,1,4.54L229.51,153l9-3.68A304.58,304.58,0,0,1,308.51,29Z"/><path class="cls-3" d="M134.82,74.29v-.06A300.94,300.94,0,0,1,170.21,29h3.49A332.18,332.18,0,0,1,204,79.63a332.49,332.49,0,0,0-28.83,90.76A305.43,305.43,0,0,0,134.82,74.29Z"/><path class="cls-4" d="M99.49,29H96A334.23,334.23,0,0,0,32.27,225.9c0,2.64.06,5.33.13,8l55.68-22.81A305,305,0,0,1,134.82,74.29v-.06A300.44,300.44,0,0,1,170.21,29Z"/></svg>