<svg id="Layer_1" data-name="Layer 1" xmlns="http://www.w3.org/2000/svg" xmlns:xlink="http://www.w3.org/1999/xlink" viewBox="0 0 385.43 98.04"><defs><style>.cls-1,.cls-3{opacity:0.8;}.cls-1{fill:url(#linear-gradient);}.cls-2{fill:url(#linear-gradient-2);}.cls-3{fill:url(#linear-gradient-3);}.cls-4{fill:url(#linear-gradient-4);}.cls-5{fill:#010039;}</style><linearGradient id="linear-gradient" x1="101.91" y1="14.1" x2="101.91" y2="103.28" gradientUnits="userSpaceOnUse"><stop offset="0" stop-color="#420ee2"/><stop offset="1" stop-color="#009fe3"/></linearGradient><linearGradient id="linear-gradient-2" x1="80.12" y1="4.93" x2="80.12" y2="103.26" xlink:href="#linear-gradient"/><linearGradient id="linear-gradient-3" x1="58.05" y1="14.1" x2="58.05" y2="103.28" xlink:href="#linear-gradient"/><linearGradient id="linear-gradient-4" x1="37.27" y1="4.93" x2="37.27" y2="103.26" xlink:href="#linear-gradient"/></defs><path class="cls-1" d="M89.78,40.52a94.3,94.3,0,0,1,10.66-13.61h1.32A101.92,101.92,0,0,1,114,49.26L97.78,55.94A90.8,90.8,0,0,0,89.78,40.52Z"/><path class="cls-2" d="M79.15,26.91H77.82a101.82,101.82,0,0,0-18,43.1c.11.45.2.92.29,1.38l16.27-6.67,2.72-1.12A93.34,93.34,0,0,1,89.78,40.52a94.3,94.3,0,0,1,10.66-13.61Z"/><path class="cls-3" d="M47.51,40.72v0A91.82,91.82,0,0,1,58.29,26.91h1.07a101.81,101.81,0,0,1,9.23,15.44A100.87,100.87,0,0,0,59.81,70,93.19,93.19,0,0,0,47.51,40.72Z"/><path class="cls-4" d="M36.74,26.91H35.68a101.82,101.82,0,0,0-19.42,60c0,.81,0,1.63,0,2.43l17-6.95A92.93,92.93,0,0,1,47.51,40.72v0A91.82,91.82,0,0,1,58.29,26.91Z"/><path class="cls-5" d="M129.85,77.37V34.51h7.93l14.7,22,14.69-22h7.93V77.37h-8.91V51.23L152.48,71.52,138.7,51.23V77.37Z"/><path class="cls-5" d="M196,77.37V34.51h9.47V77.37Z"/><path class="cls-5" d="M226.42,77.37V34.51h18a14.16,14.16,0,0,1,10.27,4.12,13.1,13.1,0,0,1,4.3,10,13,13,0,0,1-7.63,12.18l10.46,16.54h-10.7L242.16,63.1h-6.33V77.37Zm9.41-22.63h7.5c3.69,0,6.15-2.34,6.15-6a5.39,5.39,0,0,0-5.35-5.65h-8.3Z"/><path class="cls-5" d="M279,77.37V34.51h9.47V53.63l16.54-19.12H316.3l-16.41,19L316.8,77.37H305.67L293.43,60.21l-4.92,5.47V77.37Z"/><path class="cls-5" d="M344,77.37v-16L328.22,34.51h10.27L348.7,52.34l10.2-17.83h10.27L353.43,61.38v16Z"/></svg>