<svg id="Layer_1" data-name="Layer 1" xmlns="http://www.w3.org/2000/svg" xmlns:xlink="http://www.w3.org/1999/xlink" viewBox="0 0 385.43 293.11"><defs><style>.cls-1{fill:#13013f;}.cls-2{fill:url(#linear-gradient);}.cls-3{fill:url(#linear-gradient-2);}.cls-4{fill:url(#linear-gradient-3);}.cls-5{fill:#312783;}.cls-6{fill:url(#linear-gradient-4);}.cls-7{fill:#fff;}</style><linearGradient id="linear-gradient" x1="111.51" y1="134.52" x2="146.56" y2="71.66" gradientUnits="userSpaceOnUse"><stop offset="0" stop-color="#8338ec"/><stop offset="1" stop-color="#3a86ff"/></linearGradient><linearGradient id="linear-gradient-2" x1="194.43" y1="130.65" x2="263.01" y2="7.97" xlink:href="#linear-gradient"/><linearGradient id="linear-gradient-3" x1="279.05" y1="138.81" x2="240.95" y2="78.99" gradientUnits="userSpaceOnUse"><stop offset="0" stop-color="#8338ec"/><stop offset="1" stop-color="#ff006e"/></linearGradient><linearGradient id="linear-gradient-4" x1="134.63" y1="52.73" x2="208.93" y2="141.6" xlink:href="#linear-gradient-3"/></defs><rect class="cls-1" y="-1.22" width="385.43" height="294.33"/><path class="cls-2" d="M119.76,85.33l0,0L93.22,131.71h39.19l20.2-35.28S137.28,67.27,119.76,85.33Z"/><path class="cls-3" d="M252.4,62.17l11.38-19.86A17,17,0,0,0,234.24,25.4l-1.43,2.51L213.22,62.17,192.7,98c3.33,5.58,16.76,25.42,32.18,12.29l7.93-13.87Z"/><polygon class="cls-4" points="258.04 72.01 238.44 106.26 252.99 131.71 292.2 131.71 258.04 72.01"/><path class="cls-5" d="M191.9,96.62h0l0,0Z"/><path class="cls-5" d="M192.7,98l0,0,0,0Z"/><path class="cls-6" d="M192.7,98h0l0,0-.75-1.31,0,0L172.2,62.17a22.57,22.57,0,0,0-39.19,0l-3.41,6-9.84,17.18c17.52-18.06,32.85,11.1,32.85,11.1l20.19,35.28.31.55a22.58,22.58,0,0,0,39.2,0l.32-.53,2.53-4.43,9.72-17C209.46,123.43,196,103.59,192.7,98Z"/><path class="cls-7" d="M16.26,254.43v-69.3H36.75v8.66c2.61-6,9.62-10.17,18-10.17,9.35,0,15.68,3.71,18.84,11,3.85-7.29,11.55-11,23.1-11,15.81,0,24.61,10.72,24.61,28.73v42.08H100.82v-39.6c0-8.11-3.71-13.06-10.31-13.06S79,207.4,79,215.52v38.91H58.47v-39.6c0-8.11-3.71-13.06-10.31-13.06s-11.41,5.63-11.41,13.75v38.91Z"/><path class="cls-7" d="M144.55,156a11.62,11.62,0,1,1-11.69,11.69A11.59,11.59,0,0,1,144.55,156Zm-10.18,98.45v-69.3h20.49v69.3Z"/><path class="cls-7" d="M168.61,254.43v-69.3H189.1v9.49c3.16-7,10.58-11,20.07-11a43.9,43.9,0,0,1,5.36.41v19.25a35.43,35.43,0,0,0-6.87-.69c-11.69,0-18.56,6.6-18.56,18v33.83Z"/><path class="cls-7" d="M222,254.43V158.59h20.49v52.94l22.83-26.4h23.79l-27.64,31.35,30,38h-23.1l-20.07-25.58L242.53,235v19.39Z"/><path class="cls-7" d="M318.43,255.67l-29-70.54h21.31l18.43,46.2,18.7-46.2h21.31l-40.84,96h-21Z"/></svg>