<svg id="Layer_1" data-name="Layer 1" xmlns="http://www.w3.org/2000/svg" xmlns:xlink="http://www.w3.org/1999/xlink" viewBox="0 0 385.43 104.05"><defs><style>.cls-1{fill:url(#linear-gradient);}.cls-2{fill:url(#linear-gradient-2);}.cls-3{fill:url(#linear-gradient-3);}.cls-4{fill:#312783;}.cls-5{fill:url(#linear-gradient-4);}.cls-6{fill:#13013f;}</style><linearGradient id="linear-gradient" x1="22.22" y1="79.47" x2="43.28" y2="41.71" gradientUnits="userSpaceOnUse"><stop offset="0" stop-color="#8338ec"/><stop offset="1" stop-color="#3a86ff"/></linearGradient><linearGradient id="linear-gradient-2" x1="72.04" y1="77.14" x2="113.24" y2="3.44" xlink:href="#linear-gradient"/><linearGradient id="linear-gradient-3" x1="122.88" y1="82.05" x2="99.99" y2="46.11" gradientUnits="userSpaceOnUse"><stop offset="0" stop-color="#8338ec"/><stop offset="1" stop-color="#ff006e"/></linearGradient><linearGradient id="linear-gradient-4" x1="36.11" y1="30.34" x2="80.75" y2="83.73" xlink:href="#linear-gradient-3"/></defs><path class="cls-1" d="M27.18,49.92h0L11.23,77.78H34.78L46.91,56.59S37.7,39.07,27.18,49.92Z"/><path class="cls-2" d="M106.87,36l6.83-11.93A10.22,10.22,0,0,0,96,13.91l-.87,1.51L83.32,36,71,57.54c2,3.35,10.07,15.27,19.33,7.38l4.76-8.33Z"/><polygon class="cls-3" points="110.25 41.92 98.48 62.49 107.22 77.78 130.78 77.78 110.25 41.92"/><path class="cls-4" d="M70.52,56.7h0l0,0Z"/><path class="cls-4" d="M71,57.54l0,0,0,0Z"/><path class="cls-5" d="M71,57.54h0l0,0-.44-.79,0,0L58.68,36a13.55,13.55,0,0,0-23.54,0l-2,3.59L27.18,49.92c10.52-10.85,19.73,6.67,19.73,6.67L59,77.78l.19.33a13.56,13.56,0,0,0,23.55,0l.19-.32,1.52-2.66,5.84-10.2C81.07,72.81,73,60.89,71,57.54Z"/><path class="cls-6" d="M144.17,77.88V32.71h13.35v5.65c1.7-4,6.27-6.63,11.74-6.63,6.1,0,10.22,2.42,12.28,7.17,2.51-4.75,7.53-7.17,15.06-7.17,10.3,0,16,7,16,18.73V77.88H199.29V52.07c0-5.29-2.42-8.51-6.73-8.51s-7.52,3.67-7.52,9V77.88H171.68V52.07c0-5.29-2.42-8.51-6.72-8.51s-7.44,3.67-7.44,9V77.88Z"/><path class="cls-6" d="M227.79,13.71a7.58,7.58,0,1,1-7.62,7.62A7.55,7.55,0,0,1,227.79,13.71Zm-6.64,64.17V32.71h13.36V77.88Z"/><path class="cls-6" d="M243.47,77.88V32.71h13.35V38.9c2.06-4.57,6.9-7.17,13.09-7.17a31.13,31.13,0,0,1,3.49.26V44.54a22.8,22.8,0,0,0-4.48-.45c-7.62,0-12.1,4.31-12.1,11.74v22Z"/><path class="cls-6" d="M278.3,77.88V15.41h13.35V49.92l14.88-17.21H322L304,53.15l19.54,24.73H308.5L295.42,61.21l-3.77,4V77.88Z"/><path class="cls-6" d="M341.12,78.69l-18.91-46H336.1l12,30.12L360.3,32.71h13.9L347.58,95.27H333.86Z"/></svg>