<svg id="Layer_1" data-name="Layer 1" xmlns="http://www.w3.org/2000/svg" xmlns:xlink="http://www.w3.org/1999/xlink" viewBox="0 0 385.43 258.38"><defs><style>.cls-1{fill:#13013f;}.cls-2,.cls-4{opacity:0.8;}.cls-2{fill:url(#linear-gradient);}.cls-3{fill:url(#linear-gradient-2);}.cls-4{fill:url(#linear-gradient-3);}.cls-5{fill:url(#linear-gradient-4);}.cls-6{fill:#fff;}</style><linearGradient id="linear-gradient" x1="262.09" y1="4.79" x2="262.09" y2="173.08" gradientUnits="userSpaceOnUse"><stop offset="0" stop-color="#420ee2"/><stop offset="1" stop-color="#009fe3"/></linearGradient><linearGradient id="linear-gradient-2" x1="220.97" y1="-12.51" x2="220.97" y2="173.04" xlink:href="#linear-gradient"/><linearGradient id="linear-gradient-3" x1="179.31" y1="4.79" x2="179.31" y2="173.08" xlink:href="#linear-gradient"/><linearGradient id="linear-gradient-4" x1="140.11" y1="-12.51" x2="140.11" y2="173.04" xlink:href="#linear-gradient"/></defs><rect class="cls-1" y="-0.69" width="385.43" height="259.07"/><path class="cls-2" d="M239.2,54.64A177.93,177.93,0,0,1,259.3,29h2.51A193.21,193.21,0,0,1,285,71.15L254.3,83.74A174,174,0,0,0,239.2,54.64Z"/><path class="cls-3" d="M219.13,29h-2.5a191.83,191.83,0,0,0-34,81.33c.21.84.39,1.73.56,2.61l30.69-12.59L219,98.2A175.51,175.51,0,0,1,239.2,54.64,177.93,177.93,0,0,1,259.3,29Z"/><path class="cls-4" d="M159.42,55v0a173.46,173.46,0,0,1,20.35-26h2A190.14,190.14,0,0,1,199.2,58.1a191.26,191.26,0,0,0-16.57,52.2A175.71,175.71,0,0,0,159.42,55Z"/><path class="cls-5" d="M139.1,29h-2a192.23,192.23,0,0,0-36.64,113.25c0,1.51,0,3.07.07,4.58l32-13.12A175.41,175.41,0,0,1,159.42,55v0a173.46,173.46,0,0,1,20.35-26Z"/><path class="cls-6" d="M8.65,233.87V168h12.2l22.6,33.76L66.06,168h12.2v65.92H64.54V193.68L43.45,224.89,22.26,193.68v40.19Z"/><path class="cls-6" d="M110.39,233.87V168H125v65.92Z"/><path class="cls-6" d="M157.2,233.87V168h27.62a21.77,21.77,0,0,1,15.79,6.33,20.19,20.19,0,0,1,6.62,15.42c0,8.42-4.63,15.7-11.72,18.73l16.08,25.44H195.13l-13.72-21.94h-9.74v21.94Zm14.47-34.81h11.54c5.67,0,9.46-3.59,9.46-9.17,0-5-3.6-8.7-8.23-8.7H171.67Z"/><path class="cls-6" d="M238.14,233.87V168h14.57v29.41L278.15,168h17.31l-25.25,29.22,26,36.7H279.1l-18.82-26.39-7.57,8.42v18Z"/><path class="cls-6" d="M338,233.87V209.28L313.79,168h15.8l15.7,27.42L361,168h15.79l-24.21,41.33v24.59Z"/></svg>