<svg id="Layer_1" data-name="Layer 1" xmlns="http://www.w3.org/2000/svg" xmlns:xlink="http://www.w3.org/1999/xlink" viewBox="0 0 1024 1024"><defs><style>.cls-1{fill:#020716;}.cls-2,.cls-4{opacity:0.8;}.cls-2{fill:url(#linear-gradient);}.cls-3{fill:url(#linear-gradient-2);}.cls-4{fill:url(#linear-gradient-3);}.cls-5{fill:url(#linear-gradient-4);}</style><linearGradient id="linear-gradient" x1="736.73" y1="242.85" x2="736.73" y2="787.98" gradientUnits="userSpaceOnUse"><stop offset="0" stop-color="#420ee2"/><stop offset="1" stop-color="#009fe3"/></linearGradient><linearGradient id="linear-gradient-2" x1="603.51" y1="186.79" x2="603.51" y2="787.84" xlink:href="#linear-gradient"/><linearGradient id="linear-gradient-3" x1="468.59" y1="242.85" x2="468.59" y2="787.98" xlink:href="#linear-gradient"/><linearGradient id="linear-gradient-4" x1="341.6" y1="186.79" x2="341.6" y2="787.84" xlink:href="#linear-gradient"/></defs><rect class="cls-1" width="1024" height="1024"/><path class="cls-2" d="M662.58,404.32a573.93,573.93,0,0,1,65.12-83.17h8.11a627,627,0,0,1,75.06,136.64l-99.39,40.79A562,562,0,0,0,662.58,404.32Z"/><path class="cls-3" d="M597.57,321.15h-8.11A622.19,622.19,0,0,0,479.33,584.6c.68,2.75,1.25,5.6,1.82,8.46l99.4-40.79,16.68-6.85A567.74,567.74,0,0,1,727.7,321.15Z"/><path class="cls-4" d="M404.15,405.58v-.12a562,562,0,0,1,65.92-84.31h6.51A618.56,618.56,0,0,1,533,415.52,619.07,619.07,0,0,0,479.33,584.6,569.05,569.05,0,0,0,404.15,405.58Z"/><path class="cls-5" d="M338.34,321.15h-6.51A622.61,622.61,0,0,0,213.13,688c0,4.91.11,9.94.23,14.85l103.73-42.5a568.11,568.11,0,0,1,87.06-254.77v-.12a562,562,0,0,1,65.92-84.31Z"/></svg>