<svg xmlns="http://www.w3.org/2000/svg" version="1.1" xmlns:xlink="http://www.w3.org/1999/xlink" xmlns:svgjs="http://svgjs.com/svgjs" width="1440" height="560" preserveAspectRatio="none" viewBox="0 0 1440 560"><g mask="url(&quot;#SvgjsMask1011&quot;)" fill="none"><g transform="translate(0, 0)" stroke-linecap="round" stroke="url(#SvgjsLinearGradient1012)"><path d="M260 226.72 L260 241.72" stroke-width="15"></path><path d="M260 264.22 L260 279.22" stroke-width="15"></path><path d="M260 301.72 L260 333.28" stroke-width="15"></path><path d="M280 150.2 L280 165.2" stroke-width="15"></path><path d="M280 187.7 L280 337.7" stroke-width="15"></path><path d="M280 360.2 L280 409.8" stroke-width="15"></path><path d="M300 126.49 L300 433.51" stroke-width="15"></path><path d="M320 249.56 L320 264.56" stroke-width="15"></path><path d="M320 287.06 L320 310.44" stroke-width="15"></path><path d="M340 139.9 L340 319.9" stroke-width="15"></path><path d="M340 342.4 L340 372.4" stroke-width="15"></path><path d="M340 394.9 L340 420.11" stroke-width="15"></path><path d="M360 174.17 L360 219.17" stroke-width="15"></path><path d="M360 241.67 L360 286.66999999999996" stroke-width="15"></path><path d="M360 309.16999999999996 L360 385.83" stroke-width="15"></path><path d="M380 261.01 L380 298.99" stroke-width="15"></path><path d="M400 146.19 L400 413.81" stroke-width="15"></path><path d="M420 175.97 L420 205.97" stroke-width="15"></path><path d="M420 228.47 L420 384.03" stroke-width="15"></path><path d="M440 244.98 L440 259.98" stroke-width="15"></path><path d="M440 282.48 L440 315.02" stroke-width="15"></path><path d="M460 243.12 L460 258.12" stroke-width="15"></path><path d="M460 280.62 L460 316.88" stroke-width="15"></path><path d="M480 234.16 L480 325.83" stroke-width="15"></path><path d="M500 201.39 L500 358.61" stroke-width="15"></path><path d="M520 205.76 L520 265.76" stroke-width="15"></path><path d="M520 288.26 L520 303.26" stroke-width="15"></path><path d="M520 325.76 L520 354.24" stroke-width="15"></path><path d="M540 235.63 L540 324.37" stroke-width="15"></path><path d="M560 150.63 L560 255.63" stroke-width="15"></path><path d="M560 278.13 L560 409.37" stroke-width="15"></path><path d="M580 186.23 L580 261.23" stroke-width="15"></path><path d="M580 283.73 L580 313.73" stroke-width="15"></path><path d="M580 336.23 L580 373.77" stroke-width="15"></path><path d="M600 200.34 L600 260.34000000000003" stroke-width="15"></path><path d="M600 282.84000000000003 L600 297.84000000000003" stroke-width="15"></path><path d="M600 320.34000000000003 L600 359.66" stroke-width="15"></path><path d="M620 134.78 L620 314.78" stroke-width="15"></path><path d="M620 337.28 L620 425.22" stroke-width="15"></path><path d="M640 245.22 L640 260.22" stroke-width="15"></path><path d="M640 282.72 L640 314.77" stroke-width="15"></path><path d="M660 136.5 L660 271.5" stroke-width="15"></path><path d="M660 294 L660 423.5" stroke-width="15"></path><path d="M680 204.74 L680 234.74" stroke-width="15"></path><path d="M680 257.24 L680 355.26" stroke-width="15"></path><path d="M700 216.45 L700 343.55" stroke-width="15"></path><path d="M720 162 L720 237" stroke-width="15"></path><path d="M720 259.5 L720 304.5" stroke-width="15"></path><path d="M720 327 L720 398" stroke-width="15"></path><path d="M740 145.4 L740 325.4" stroke-width="15"></path><path d="M740 347.9 L740 414.61" stroke-width="15"></path><path d="M760 263.71 L760 296.29" stroke-width="15"></path><path d="M780 211.72 L780 256.72" stroke-width="15"></path><path d="M780 279.22 L780 309.22" stroke-width="15"></path><path d="M780 331.72 L780 348.27" stroke-width="15"></path><path d="M800 176.04 L800 221.04" stroke-width="15"></path><path d="M800 243.54 L800 303.53999999999996" stroke-width="15"></path><path d="M800 326.03999999999996 L800 383.96" stroke-width="15"></path><path d="M820 245.01 L820 314.99" stroke-width="15"></path><path d="M840 140.7 L840 185.7" stroke-width="15"></path><path d="M840 208.2 L840 373.2" stroke-width="15"></path><path d="M840 395.7 L840 419.3" stroke-width="15"></path><path d="M860 173.06 L860 308.06" stroke-width="15"></path><path d="M860 330.56 L860 345.56" stroke-width="15"></path><path d="M860 368.06 L860 386.94" stroke-width="15"></path><path d="M880 226.16 L880 256.15999999999997" stroke-width="15"></path><path d="M880 278.65999999999997 L880 293.65999999999997" stroke-width="15"></path><path d="M880 316.15999999999997 L880 333.83" stroke-width="15"></path><path d="M900 207.64 L900 222.64" stroke-width="15"></path><path d="M900 245.14 L900 352.36" stroke-width="15"></path><path d="M920 159.57 L920 400.43" stroke-width="15"></path><path d="M940 144.24 L940 249.24" stroke-width="15"></path><path d="M940 271.74 L940 415.76" stroke-width="15"></path><path d="M960 120.1 L960 330.1" stroke-width="15"></path><path d="M960 352.6 L960 367.6" stroke-width="15"></path><path d="M960 390.1 L960 439.89" stroke-width="15"></path><path d="M980 225.81 L980 334.19" stroke-width="15"></path><path d="M1000 150.05 L1000 210.05" stroke-width="15"></path><path d="M1000 232.55 L1000 367.55" stroke-width="15"></path><path d="M1000 390.05 L1000 409.95" stroke-width="15"></path><path d="M1020 210.2 L1020 240.2" stroke-width="15"></path><path d="M1020 262.7 L1020 292.7" stroke-width="15"></path><path d="M1020 315.2 L1020 349.8" stroke-width="15"></path><path d="M1040 212.39 L1040 242.39" stroke-width="15"></path><path d="M1040 264.89 L1040 347.61" stroke-width="15"></path><path d="M1060 258.28 L1060 301.72" stroke-width="15"></path><path d="M1080 210.78 L1080 225.78" stroke-width="15"></path><path d="M1080 248.28 L1080 308.28" stroke-width="15"></path><path d="M1080 330.78 L1080 349.22" stroke-width="15"></path><path d="M1100 119.21 L1100 179.20999999999998" stroke-width="15"></path><path d="M1100 201.70999999999998 L1100 366.71" stroke-width="15"></path><path d="M1100 389.21 L1100 440.79" stroke-width="15"></path><path d="M1120 143.96 L1120 263.96000000000004" stroke-width="15"></path><path d="M1120 286.46000000000004 L1120 331.46000000000004" stroke-width="15"></path><path d="M1120 353.96000000000004 L1120 416.04" stroke-width="15"></path><path d="M1140 238.35 L1140 321.64" stroke-width="15"></path><path d="M1160 118.47 L1160 343.47" stroke-width="15"></path><path d="M1160 365.97 L1160 441.53" stroke-width="15"></path><path d="M1180 249.68 L1180 264.68" stroke-width="15"></path><path d="M1180 287.18 L1180 310.32" stroke-width="15"></path></g></g><defs><mask id="SvgjsMask1011"><rect width="1440" height="560" fill="#ffffff"></rect></mask><linearGradient x1="244.8" y1="280" x2="1195.2" y2="280" gradientUnits="userSpaceOnUse" id="SvgjsLinearGradient1012"><stop stop-color="#3a7cc3" offset="0"></stop><stop stop-color="rgba(226, 13, 139, 1)" offset="1"></stop></linearGradient></defs></svg>