<svg xmlns="http://www.w3.org/2000/svg" version="1.1" xmlns:xlink="http://www.w3.org/1999/xlink" xmlns:svgjs="http://svgjs.com/svgjs" width="1440" height="560" preserveAspectRatio="none" viewBox="0 0 1440 560"><g mask="url(&quot;#SvgjsMask1087&quot;)" fill="none"><path d="M 0,15 C 41.2,30.4 123.6,92.8 206,92 C 288.4,91.2 329.6,13 412,11 C 494.4,9 535.6,79.2 618,82 C 700.4,84.8 741.6,20.6 824,25 C 906.4,29.4 947.6,99.8 1030,104 C 1112.4,108.2 1154,46.6 1236,46 C 1318,45.4 1399.2,90 1440,101L1440 560L0 560z" fill="rgba(226, 13, 139, 1)"></path><path d="M 0,140 C 48,155.4 144,212.6 240,217 C 336,221.4 384,169.2 480,162 C 576,154.8 624,181 720,181 C 816,181 864,153.8 960,162 C 1056,170.2 1104,228.8 1200,222 C 1296,215.2 1392,146.8 1440,128L1440 560L0 560z" fill="rgba(171, 38, 195, 1)"></path><path d="M 0,225 C 48,246 144,329.8 240,330 C 336,330.2 384,234.6 480,226 C 576,217.4 624,284.8 720,287 C 816,289.2 864,237 960,237 C 1056,237 1104,286.2 1200,287 C 1296,287.8 1392,250.2 1440,241L1440 560L0 560z" fill="rgba(100, 89, 244, 1)"></path><path d="M 0,428 C 48,414.6 144,358.2 240,361 C 336,363.8 384,438.6 480,442 C 576,445.4 624,385 720,378 C 816,371 864,411.2 960,407 C 1056,402.8 1104,350.4 1200,357 C 1296,363.6 1392,423.4 1440,440L1440 560L0 560z" fill="rgba(73, 118, 251, 1)"></path><path d="M 0,450 C 57.6,463.2 172.8,514.2 288,516 C 403.2,517.8 460.8,459.8 576,459 C 691.2,458.2 748.8,513.8 864,512 C 979.2,510.2 1036.8,444.2 1152,450 C 1267.2,455.8 1382.4,522.8 1440,541L1440 560L0 560z" fill="rgba(1, 7, 21, 1)"></path></g><defs><mask id="SvgjsMask1087"><rect width="1440" height="560" fill="#ffffff"></rect></mask></defs></svg>